<?xml version="1.0" encoding="UTF-8" standalone="no"?>
<svg
   xmlns:dc="http://purl.org/dc/elements/1.1/"
   xmlns:cc="http://creativecommons.org/ns#"
   xmlns:rdf="http://www.w3.org/1999/02/22-rdf-syntax-ns#"
   xmlns:svg="http://www.w3.org/2000/svg"
   xmlns="http://www.w3.org/2000/svg"
   xmlns:sodipodi="http://sodipodi.sourceforge.net/DTD/sodipodi-0.dtd"
   xmlns:inkscape="http://www.inkscape.org/namespaces/inkscape"
   viewBox="0 0 699.99997 700"
   version="1.1"
   id="svg8"
   sodipodi:docname="vogue-logo.svg"
   width="700"
   height="700"
   inkscape:export-filename="G:\Users\suitedoalex\sites\vogue-logo-0.png"
   inkscape:export-xdpi="561.73999"
   inkscape:export-ydpi="561.73999"
   inkscape:version="0.92.4 (5da689c313, 2019-01-14)">
  <metadata
     id="metadata14">
    <rdf:RDF>
      <cc:Work
         rdf:about="">
        <dc:format>image/svg+xml</dc:format>
        <dc:type
           rdf:resource="http://purl.org/dc/dcmitype/StillImage" />
        <dc:title></dc:title>
      </cc:Work>
    </rdf:RDF>
  </metadata>
  <defs
     id="defs12" />
  <sodipodi:namedview
     pagecolor="#ffffff"
     bordercolor="#666666"
     borderopacity="1"
     objecttolerance="10"
     gridtolerance="10"
     guidetolerance="10"
     inkscape:pageopacity="0"
     inkscape:pageshadow="2"
     inkscape:window-width="1600"
     inkscape:window-height="837"
     id="namedview10"
     showgrid="false"
     inkscape:zoom="0.41697326"
     inkscape:cx="113.51425"
     inkscape:cy="97.037663"
     inkscape:window-x="-8"
     inkscape:window-y="-8"
     inkscape:window-maximized="1"
     inkscape:current-layer="svg8" />
  <path
     inkscape:connector-curvature="0"
     d="m 93.043918,289.44891 h 44.585492 v 1.33092 h -9.31637 c 0,0 -2.66182,0 -1.99637,1.33091 l 31.27639,85.84366 0.66546,1.33093 27.9491,-85.84368 c 0,-0.66546 1.33092,-2.66182 -0.66546,-2.66182 h -9.98182 v -1.33092 h 23.95639 v 1.33092 h -8.65093 c -2.6618,0 -2.6618,0.66545 -2.6618,1.99636 0,0.66546 -38.59641,121.11282 -38.59641,121.11282 v -0.66553 c -15.97091,-47.24724 -41.92365,-112.46183 -43.92003,-119.78183 -0.66545,-1.99637 -0.66545,-1.99637 -1.99636,-1.99637 H 93.043918 c -0.66545,-0.66545 -0.66545,-1.99637 0,-1.99637 m 146.400102,125.1055 c 25.95275,0 53.90186,-28.61453 54.56732,-64.54914 0,-37.26543 -27.28366,-63.88364 -53.90186,-63.88364 -27.28366,0 -53.90186,29.94547 -53.90186,63.88364 0,35.93461 25.28729,64.54914 53.2364,64.54914 m -30.61093,-64.54914 c 0,-34.60361 6.65455,-62.55273 31.27639,-62.55273 25.95274,0 31.27638,29.28 31.27638,62.55273 0,34.60368 -5.32364,63.88374 -31.27638,63.88374 -27.94911,0 -31.27639,-27.94913 -31.27639,-63.88374 m 159.04375,11.31276 h 9.98183 c 0,0 1.99636,0 1.99636,0.66553 v 29.27993 c 0,22.62552 -22.62546,22.62552 -28.61457,21.95999 -23.29092,-2.66175 -23.95637,-50.57452 -23.95637,-63.21821 0,-34.60361 5.32364,-64.54909 28.61455,-63.21818 27.94912,1.33091 35.26912,41.25821 35.93458,43.25456 0.66545,0 0.66545,-0.66545 0.66545,-0.66545 v -43.92002 c 0,0 0,-0.66546 -0.66545,0 l -0.66546,0.66545 c -12.64364,12.64366 -18.63273,-0.66545 -36.60002,-1.33091 -21.96001,-0.66544 -49.24367,29.94548 -49.90913,65.21455 -0.66545,35.2692 23.29093,63.21821 48.57822,63.88374 13.97456,0.6654 13.3091,-3.32728 30.61093,-8.65089 10.64728,-3.32728 15.30546,3.99268 15.97091,6.65455 0.66546,0.6654 0.66546,0 0.66546,0 v -49.90911 c 0,-0.66553 1.33092,-0.66553 1.33092,-0.66553 h 9.31637 v -1.33081 h -43.92003 c 0,0.6654 0,1.33081 0.66545,1.33081 m 228.25105,-71.86912 v 44.58549 h -0.66544 c 0,0 0.66544,-43.25457 -39.26186,-43.25457 h -15.30546 c -0.66545,0 -1.33091,0 -1.33091,0.66545 v 55.89823 c 0,0.66545 0.66546,0.66545 1.33091,0.66545 h 5.32364 c 23.95637,0 21.96001,-23.95635 21.96001,-23.95635 h 0.66547 v 50.57451 h -0.66547 c 0,0 -0.66546,-25.28726 -22.62547,-25.28726 h -4.65818 c -0.66545,0 -1.33091,0 -1.33091,0.66541 v 59.89106 c 0,0.6654 0.66546,0.6654 1.33091,0.6654 h 14.64001 c 43.25457,0 42.58912,-45.91643 42.58912,-46.58183 h 1.33091 v 47.91277 h -91.16734 v -1.33094 h 9.31637 c 0.66546,0 1.33091,0 1.33091,-0.6654 v -119.1165 c 0,-0.66547 -1.33091,-0.66547 -1.33091,-0.66547 h -19.96364 c 0,0 -1.33091,0 -1.33091,0.66547 v 90.50184 c 0,25.28726 -19.29821,33.27286 -33.27276,33.93827 -16.63637,0 -45.91639,-2.66187 -45.91639,-39.26188 v -83.84732 c 0,-1.99638 -1.99636,-1.99638 -1.99636,-1.99638 h -9.31637 v -1.33091 h 45.25094 v 1.33091 h -9.98184 c 0,0 -2.66182,0 -2.66182,1.99638 v 95.82548 c 0,13.97462 7.98547,26.61819 25.2873,25.95279 13.30909,0 31.94184,-7.98549 31.94184,-32.60734 v -90.50184 c 0,-0.66547 -1.33091,-0.66547 -1.33091,-0.66547 h -13.97456 v -1.33091 c 0.66545,0.66546 115.78917,0.66546 115.78917,0.66546"
     id="path4-4"
     sodipodi:nodetypes="ccccccccsccccsscccsccccssccssscccsscsccccsscsccccsccccccccssssssccccsssssscccccsssccsscssccccccsscsscccc"
     style="stroke-width:6.65455008"
     inkscape:export-filename="G:\Users\suitedoalex\sites\vogue-logo-4.png"
     inkscape:export-xdpi="75.753036"
     inkscape:export-ydpi="75.753036" />
</svg>
